<mxfile host="app.diagrams.net" modified="2021-01-20T05:04:37.637Z" agent="5.0 (Windows NT 10.0; Win64; x64) AppleWebKit/537.36 (KHTML, like Gecko) Chrome/87.0.4280.141 Safari/537.36 Edg/87.0.664.75" etag="v1zGi_s2t-atfjkzB2Nd" version="14.2.5" type="github">
  <diagram id="uG5XpvnbjQkg9dnHYVo2" name="Page-1">
    <mxGraphModel dx="1422" dy="800" grid="1" gridSize="10" guides="1" tooltips="1" connect="1" arrows="1" fold="1" page="1" pageScale="1" pageWidth="850" pageHeight="1100" math="0" shadow="0">
      <root>
        <mxCell id="0" />
        <mxCell id="1" parent="0" />
        <mxCell id="uCGIbcbwJvLG3aiI82Lx-5" value="ANDROID APP" style="rounded=0;whiteSpace=wrap;html=1;fontFamily=Georgia;fillColor=#fff2cc;strokeColor=#d6b656;" vertex="1" parent="1">
          <mxGeometry x="270" y="90" width="100" height="50" as="geometry" />
        </mxCell>
        <mxCell id="uCGIbcbwJvLG3aiI82Lx-8" value="" style="strokeWidth=2;html=1;shape=mxgraph.flowchart.database;whiteSpace=wrap;fontFamily=Georgia;fillColor=#d5e8d4;strokeColor=#82b366;" vertex="1" parent="1">
          <mxGeometry x="610" y="320" width="60" height="60" as="geometry" />
        </mxCell>
        <mxCell id="uCGIbcbwJvLG3aiI82Lx-10" value="Book souls" style="text;html=1;strokeColor=#6c8ebf;fillColor=#dae8fc;align=center;verticalAlign=middle;whiteSpace=wrap;rounded=0;fontFamily=Georgia;" vertex="1" parent="1">
          <mxGeometry x="398.46" y="100" width="41.54" height="30" as="geometry" />
        </mxCell>
        <mxCell id="uCGIbcbwJvLG3aiI82Lx-11" value="ALL Request" style="text;html=1;strokeColor=#d6b656;fillColor=#fff2cc;align=center;verticalAlign=middle;whiteSpace=wrap;rounded=1;fontFamily=Georgia;sketch=0;shadow=0;" vertex="1" parent="1">
          <mxGeometry x="340" y="200" width="70" height="50" as="geometry" />
        </mxCell>
        <mxCell id="uCGIbcbwJvLG3aiI82Lx-12" value="&lt;h1&gt;Database&lt;/h1&gt;&lt;p&gt;Note: The database can be any postgresql or Mongodb for the Use case.&lt;/p&gt;" style="text;html=1;strokeColor=#82b366;fillColor=#d5e8d4;spacing=5;spacingTop=-20;whiteSpace=wrap;overflow=hidden;rounded=0;fontFamily=Georgia;" vertex="1" parent="1">
          <mxGeometry x="590" y="390" width="190" height="120" as="geometry" />
        </mxCell>
        <mxCell id="uCGIbcbwJvLG3aiI82Lx-13" value="Accept the request and sends proper response back to client" style="text;html=1;strokeColor=#b85450;fillColor=#f8cecc;align=center;verticalAlign=middle;whiteSpace=wrap;rounded=0;fontFamily=Georgia;" vertex="1" parent="1">
          <mxGeometry x="250" y="320" width="90" height="110" as="geometry" />
        </mxCell>
        <mxCell id="uCGIbcbwJvLG3aiI82Lx-18" style="edgeStyle=orthogonalEdgeStyle;rounded=0;orthogonalLoop=1;jettySize=auto;html=1;exitX=1;exitY=0.5;exitDx=0;exitDy=0;entryX=0;entryY=0.5;entryDx=0;entryDy=0;entryPerimeter=0;fontFamily=Georgia;" edge="1" parent="1" source="uCGIbcbwJvLG3aiI82Lx-15" target="uCGIbcbwJvLG3aiI82Lx-8">
          <mxGeometry relative="1" as="geometry" />
        </mxCell>
        <mxCell id="uCGIbcbwJvLG3aiI82Lx-15" value="" style="shape=image;html=1;verticalAlign=top;verticalLabelPosition=bottom;labelBackgroundColor=#ffffff;imageAspect=0;aspect=fixed;image=https://cdn0.iconfinder.com/data/icons/long-shadow-web-icons/512/nodejs-128.png;rounded=1;glass=0;fontFamily=Georgia;" vertex="1" parent="1">
          <mxGeometry x="361" y="320" width="128" height="128" as="geometry" />
        </mxCell>
        <mxCell id="uCGIbcbwJvLG3aiI82Lx-20" style="edgeStyle=orthogonalEdgeStyle;rounded=0;orthogonalLoop=1;jettySize=auto;html=1;entryX=0.445;entryY=-0.008;entryDx=0;entryDy=0;entryPerimeter=0;fontFamily=Georgia;" edge="1" parent="1" source="uCGIbcbwJvLG3aiI82Lx-19" target="uCGIbcbwJvLG3aiI82Lx-15">
          <mxGeometry relative="1" as="geometry" />
        </mxCell>
        <mxCell id="uCGIbcbwJvLG3aiI82Lx-19" value="" style="verticalLabelPosition=bottom;verticalAlign=top;html=1;shadow=1;dashed=0;strokeWidth=1;shape=mxgraph.android.phone2;strokeColor=#b85450;rounded=1;glass=0;fontFamily=Georgia;fillColor=#f8cecc;" vertex="1" parent="1">
          <mxGeometry x="380" y="50" width="76.92" height="130" as="geometry" />
        </mxCell>
      </root>
    </mxGraphModel>
  </diagram>
</mxfile>
